<?xml version="1.0" standalone="no"?>
<!DOCTYPE svg PUBLIC "-//W3C//DTD SVG 20010904//EN"
 "http://www.w3.org/TR/2001/REC-SVG-20010904/DTD/svg10.dtd">
<svg version="1.0" xmlns="http://www.w3.org/2000/svg"
 width="512.000000pt" height="512.000000pt" viewBox="0 0 512.000000 512.000000"
 preserveAspectRatio="xMidYMid meet">
<metadata>
Created by potrace 1.11, written by Peter Selinger 2001-2013
</metadata>
<g transform="translate(0.000000,512.000000) scale(0.100000,-0.100000)"
fill="#000000" stroke="none">
<path d="M400 2570 l0 -2150 2175 0 2175 0 0 114 c0 109 -1 114 -22 120 -13 3
-939 6 -2058 6 l-2035 0 3 2030 2 2030 -120 0 -120 0 0 -2150z"/>
<path d="M2590 4125 c-377 -52 -700 -218 -964 -497 l-99 -103 -273 -5 -273 -5
-30 -29 c-16 -15 -32 -39 -36 -53 -8 -35 12 -89 42 -113 24 -19 40 -20 224
-20 110 0 199 -2 199 -4 0 -2 -16 -37 -35 -79 -238 -514 -175 -1122 163 -1577
453 -610 1282 -819 1980 -499 46 21 110 55 143 75 33 20 62 35 63 33 2 -2 37
-49 78 -104 93 -124 158 -185 242 -227 61 -30 67 -31 106 -19 54 16 83 60 76
116 -5 43 -22 62 -111 118 -35 22 -75 66 -132 142 l-83 109 88 91 c251 257
402 572 442 920 74 660 -293 1305 -905 1590 -281 131 -605 181 -905 140z m445
-20 c354 -54 661 -209 910 -461 210 -212 351 -476 417 -778 32 -147 32 -455 0
-602 -135 -624 -606 -1088 -1242 -1226 -90 -19 -134 -22 -315 -22 -231 0 -325
14 -510 75 -461 154 -832 517 -989 968 -66 188 -80 280 -80 506 0 226 14 318
80 506 47 136 87 214 185 359 244 362 632 605 1076 674 120 19 346 19 468 1z"/>
<path d="M3048 2753 l-778 -778 -318 318 -318 318 -93 -96 c-51 -52 -91 -99
-89 -104 5 -14 98 -111 106 -111 4 0 166 -159 359 -352 l353 -353 877 877 878
878 -90 90 c-49 49 -94 90 -100 90 -5 0 -360 -350 -787 -777z"/>
</g>
</svg>
